<?xml version="1.0" encoding="UTF-8"?>
<!DOCTYPE svg PUBLIC "-//W3C//DTD SVG 1.1//EN" "http://www.w3.org/Graphics/SVG/1.1/DTD/svg11.dtd">
<svg xmlns="http://www.w3.org/2000/svg" version="1.1" width="512px" height="512px" style="shape-rendering:geometricPrecision; text-rendering:geometricPrecision; image-rendering:optimizeQuality; fill-rule:evenodd; clip-rule:evenodd" xmlns:xlink="http://www.w3.org/1999/xlink">
<g><path style="opacity:0.993" fill="#016bc0" d="M 233.5,-0.5 C 248.5,-0.5 263.5,-0.5 278.5,-0.5C 368.146,10.3889 435.646,54.7222 481,132.5C 496.44,160.985 505.94,191.318 509.5,223.5C 492.129,216.604 474.129,214.604 455.5,217.5C 453.327,199.195 445.993,183.361 433.5,170C 429.884,167.359 425.884,165.526 421.5,164.5C 416.504,167.331 412.671,171.331 410,176.5C 401.095,190.583 397.762,205.917 400,222.5C 401.488,231.951 403.988,241.118 407.5,250C 405.645,252.943 402.979,254.943 399.5,256C 396.211,256.882 392.877,257.548 389.5,258C 277.834,258.5 166.167,258.667 54.5,258.5C 52.2313,292.223 57.7313,324.556 71,355.5C 90.4386,392.658 120.939,414.825 162.5,422C 244.894,434.263 319.56,415.93 386.5,367C 416.385,343.399 436.385,313.232 446.5,276.5C 464.063,275.776 480.73,271.609 496.5,264C 501.957,260.375 506.957,256.209 511.5,251.5C 511.5,260.167 511.5,268.833 511.5,277.5C 499.018,377.805 447.018,449.305 355.5,492C 330.313,502.297 304.313,508.797 277.5,511.5C 262.833,511.5 248.167,511.5 233.5,511.5C 133.195,499.018 61.6947,447.018 19,355.5C 8.70332,330.313 2.20332,304.313 -0.5,277.5C -0.5,262.833 -0.5,248.167 -0.5,233.5C 11.9821,133.195 63.9821,61.6947 155.5,19C 180.687,8.70332 206.687,2.20332 233.5,-0.5 Z"/></g>
<g><path style="opacity:1" fill="#f1f2f1" d="M 260.5,101.5 C 275.5,101.5 290.5,101.5 305.5,101.5C 305.5,115.167 305.5,128.833 305.5,142.5C 290.5,142.5 275.5,142.5 260.5,142.5C 260.5,128.833 260.5,115.167 260.5,101.5 Z"/></g>
<g><path style="opacity:1" fill="#f1f1f1" d="M 146.5,154.5 C 161.5,154.5 176.5,154.5 191.5,154.5C 191.5,168.167 191.5,181.833 191.5,195.5C 176.5,195.5 161.5,195.5 146.5,195.5C 146.5,181.833 146.5,168.167 146.5,154.5 Z"/></g>
<g><path style="opacity:1" fill="#f1f1f1" d="M 203.5,154.5 C 218.5,154.5 233.5,154.5 248.5,154.5C 248.5,168.167 248.5,181.833 248.5,195.5C 233.5,195.5 218.5,195.5 203.5,195.5C 203.5,181.833 203.5,168.167 203.5,154.5 Z"/></g>
<g><path style="opacity:1" fill="#f1f1f1" d="M 260.5,154.5 C 275.5,154.5 290.5,154.5 305.5,154.5C 305.5,168.167 305.5,181.833 305.5,195.5C 290.5,195.5 275.5,195.5 260.5,195.5C 260.5,181.833 260.5,168.167 260.5,154.5 Z"/></g>
<g><path style="opacity:1" fill="#f1f1f1" d="M 509.5,223.5 C 510.167,226.833 510.833,230.167 511.5,233.5C 511.5,239.5 511.5,245.5 511.5,251.5C 506.957,256.209 501.957,260.375 496.5,264C 480.73,271.609 464.063,275.776 446.5,276.5C 436.385,313.232 416.385,343.399 386.5,367C 319.56,415.93 244.894,434.263 162.5,422C 120.939,414.825 90.4386,392.658 71,355.5C 57.7313,324.556 52.2313,292.223 54.5,258.5C 166.167,258.667 277.834,258.5 389.5,258C 392.877,257.548 396.211,256.882 399.5,256C 402.979,254.943 405.645,252.943 407.5,250C 403.988,241.118 401.488,231.951 400,222.5C 397.762,205.917 401.095,190.583 410,176.5C 412.671,171.331 416.504,167.331 421.5,164.5C 425.884,165.526 429.884,167.359 433.5,170C 445.993,183.361 453.327,199.195 455.5,217.5C 474.129,214.604 492.129,216.604 509.5,223.5 Z"/></g>
<g><path style="opacity:1" fill="#6fa8d7" d="M 134.5,207.5 C 119.5,207.5 104.5,207.5 89.5,207.5C 89.5,221.167 89.5,234.833 89.5,248.5C 88.5042,234.677 88.1709,220.677 88.5,206.5C 104.009,206.17 119.342,206.504 134.5,207.5 Z"/></g>
<g><path style="opacity:1" fill="#f0f1f1" d="M 134.5,207.5 C 134.5,221.167 134.5,234.833 134.5,248.5C 119.5,248.5 104.5,248.5 89.5,248.5C 89.5,234.833 89.5,221.167 89.5,207.5C 104.5,207.5 119.5,207.5 134.5,207.5 Z"/></g>
<g><path style="opacity:1" fill="#67a3d5" d="M 191.5,207.5 C 176.5,207.5 161.5,207.5 146.5,207.5C 146.5,221.167 146.5,234.833 146.5,248.5C 145.504,234.677 145.171,220.677 145.5,206.5C 161.009,206.17 176.342,206.504 191.5,207.5 Z"/></g>
<g><path style="opacity:1" fill="#f0f1f1" d="M 191.5,207.5 C 191.5,221.167 191.5,234.833 191.5,248.5C 176.5,248.5 161.5,248.5 146.5,248.5C 146.5,234.833 146.5,221.167 146.5,207.5C 161.5,207.5 176.5,207.5 191.5,207.5 Z"/></g>
<g><path style="opacity:1" fill="#67a3d5" d="M 248.5,207.5 C 233.5,207.5 218.5,207.5 203.5,207.5C 203.5,221.167 203.5,234.833 203.5,248.5C 202.504,234.677 202.171,220.677 202.5,206.5C 218.009,206.17 233.342,206.504 248.5,207.5 Z"/></g>
<g><path style="opacity:1" fill="#f0f1f1" d="M 248.5,207.5 C 248.5,221.167 248.5,234.833 248.5,248.5C 233.5,248.5 218.5,248.5 203.5,248.5C 203.5,234.833 203.5,221.167 203.5,207.5C 218.5,207.5 233.5,207.5 248.5,207.5 Z"/></g>
<g><path style="opacity:1" fill="#5e9dd3" d="M 305.5,207.5 C 290.5,207.5 275.5,207.5 260.5,207.5C 260.5,221.167 260.5,234.833 260.5,248.5C 259.504,234.677 259.171,220.677 259.5,206.5C 275.009,206.17 290.342,206.504 305.5,207.5 Z"/></g>
<g><path style="opacity:1" fill="#f0f1f1" d="M 305.5,207.5 C 305.5,221.167 305.5,234.833 305.5,248.5C 290.5,248.5 275.5,248.5 260.5,248.5C 260.5,234.833 260.5,221.167 260.5,207.5C 275.5,207.5 290.5,207.5 305.5,207.5 Z"/></g>
<g><path style="opacity:1" fill="#5b9ad2" d="M 362.5,207.5 C 347.5,207.5 332.5,207.5 317.5,207.5C 317.5,221.167 317.5,234.833 317.5,248.5C 316.504,234.677 316.171,220.677 316.5,206.5C 332.009,206.17 347.342,206.504 362.5,207.5 Z"/></g>
<g><path style="opacity:1" fill="#f0f1f1" d="M 362.5,207.5 C 362.5,221.167 362.5,234.833 362.5,248.5C 347.5,248.5 332.5,248.5 317.5,248.5C 317.5,234.833 317.5,221.167 317.5,207.5C 332.5,207.5 347.5,207.5 362.5,207.5 Z"/></g>
</svg>
